<svg width="145" height="140" viewBox="0 0 145 140" fill="none" xmlns="http://www.w3.org/2000/svg">
<g id="google-play-badge-logo-svgrepo-com 1">
<path id="Vector" d="M139.63 93.9815H5.37037C2.36296 93.9815 0 91.6185 0 88.6111V56.3889C0 53.3815 2.36296 51.0185 5.37037 51.0185H139.63C142.637 51.0185 145 53.3815 145 56.3889V88.6111C145 91.6185 142.637 93.9815 139.63 93.9815Z" fill="black"/>
<path id="Vector_2" d="M139.63 51.8778C142.1 51.8778 144.141 53.9185 144.141 56.3889V88.6111C144.141 91.0815 142.1 93.1222 139.63 93.1222H5.37037C2.9 93.1222 0.859259 91.0815 0.859259 88.6111V56.3889C0.859259 53.9185 2.9 51.8778 5.37037 51.8778H139.63ZM139.63 51.0185H5.37037C2.36296 51.0185 0 53.4889 0 56.3889V88.6111C0 91.6185 2.36296 93.9815 5.37037 93.9815H139.63C142.637 93.9815 145 91.6185 145 88.6111V56.3889C145 53.4889 142.637 51.0185 139.63 51.0185Z" fill="#A6A6A6"/>
<path id="Vector_3" d="M50.9111 61.9741C50.9111 62.8333 50.6963 63.5852 50.1593 64.1222C49.5148 64.7667 48.763 65.0889 47.7963 65.0889C46.8296 65.0889 46.0778 64.7667 45.4333 64.1222C44.7889 63.4778 44.4667 62.7259 44.4667 61.7593C44.4667 60.7926 44.7889 60.0407 45.4333 59.3963C46.0778 58.7518 46.8296 58.4296 47.7963 58.4296C48.2259 58.4296 48.6556 58.537 49.0852 58.7518C49.5148 58.9667 49.837 59.1815 50.0519 59.5037L49.5148 60.0407C49.0852 59.5037 48.5482 59.2889 47.7963 59.2889C47.1519 59.2889 46.5074 59.5037 46.0778 60.0407C45.5407 60.4704 45.3259 61.1148 45.3259 61.8667C45.3259 62.6185 45.5407 63.263 46.0778 63.6926C46.6148 64.1222 47.1519 64.4444 47.7963 64.4444C48.5482 64.4444 49.0852 64.2296 49.6222 63.6926C49.9445 63.3704 50.1593 62.9407 50.1593 62.4037H47.7963V61.5444H50.9111V61.9741ZM55.8519 59.2889H52.9519V61.3296H55.637V62.0815H52.9519V64.1222H55.8519V64.9815H52.0926V58.537H55.8519V59.2889ZM59.3963 64.9815H58.537V59.2889H56.7111V58.537H61.2222V59.2889H59.3963V64.9815ZM64.337 64.9815V58.537H65.1963V64.9815H64.337ZM68.8482 64.9815H67.9889V59.2889H66.163V58.537H70.5667V59.2889H68.7407V64.9815H68.8482ZM79.0519 64.1222C78.4074 64.7667 77.6556 65.0889 76.6889 65.0889C75.7222 65.0889 74.9704 64.7667 74.3259 64.1222C73.6815 63.4778 73.3593 62.7259 73.3593 61.7593C73.3593 60.7926 73.6815 60.0407 74.3259 59.3963C74.9704 58.7518 75.7222 58.4296 76.6889 58.4296C77.6556 58.4296 78.4074 58.7518 79.0519 59.3963C79.6963 60.0407 80.0185 60.7926 80.0185 61.7593C80.0185 62.7259 79.6963 63.4778 79.0519 64.1222ZM74.9704 63.5852C75.4 64.0148 76.0445 64.337 76.6889 64.337C77.3333 64.337 77.9778 64.1222 78.4074 63.5852C78.837 63.1556 79.1593 62.5111 79.1593 61.7593C79.1593 61.0074 78.9445 60.363 78.4074 59.9333C77.9778 59.5037 77.3333 59.1815 76.6889 59.1815C76.0445 59.1815 75.4 59.3963 74.9704 59.9333C74.5407 60.363 74.2185 61.0074 74.2185 61.7593C74.2185 62.5111 74.4333 63.1556 74.9704 63.5852ZM81.2 64.9815V58.537H82.1667L85.2815 63.5852V58.537H86.1407V64.9815H85.2815L81.9519 59.7185V64.9815H81.2Z" fill="white" stroke="white" stroke-width="1.18519" stroke-miterlimit="10"/>
<path id="Vector_4" d="M73.1445 74.4333C70.5667 74.4333 68.526 76.3667 68.526 79.0519C68.526 81.6296 70.5667 83.6704 73.1445 83.6704C75.7222 83.6704 77.763 81.737 77.763 79.0519C77.763 76.2593 75.7222 74.4333 73.1445 74.4333ZM73.1445 81.737C71.7482 81.737 70.5667 80.5556 70.5667 78.9445C70.5667 77.3333 71.7482 76.1519 73.1445 76.1519C74.5408 76.1519 75.7222 77.2259 75.7222 78.9445C75.7222 80.5556 74.5408 81.737 73.1445 81.737ZM63.1556 74.4333C60.5778 74.4333 58.5371 76.3667 58.5371 79.0519C58.5371 81.6296 60.5778 83.6704 63.1556 83.6704C65.7334 83.6704 67.7741 81.737 67.7741 79.0519C67.7741 76.2593 65.7334 74.4333 63.1556 74.4333ZM63.1556 81.737C61.7593 81.737 60.5778 80.5556 60.5778 78.9445C60.5778 77.3333 61.7593 76.1519 63.1556 76.1519C64.5519 76.1519 65.7334 77.2259 65.7334 78.9445C65.7334 80.5556 64.5519 81.737 63.1556 81.737ZM51.2334 75.8296V77.763H55.8519C55.7445 78.837 55.3148 79.6963 54.7778 80.2333C54.1334 80.8778 53.0593 81.6296 51.2334 81.6296C48.3334 81.6296 46.1852 79.3741 46.1852 76.4741C46.1852 73.5741 48.4408 71.3185 51.2334 71.3185C52.7371 71.3185 53.9185 71.963 54.7778 72.7148L56.1741 71.3185C54.9926 70.2445 53.4889 69.3852 51.3408 69.3852C47.4741 69.3852 44.1445 72.6074 44.1445 76.4741C44.1445 80.3407 47.4741 83.563 51.3408 83.563C53.4889 83.563 54.9926 82.9185 56.2815 81.5222C57.5704 80.2333 58 78.4074 58 77.0111C58 76.5815 58 76.1519 57.8926 75.8296H51.2334ZM99.9963 77.3333C99.5667 76.2593 98.4926 74.4333 96.1297 74.4333C93.7667 74.4333 91.8334 76.2593 91.8334 79.0519C91.8334 81.6296 93.7667 83.6704 96.3445 83.6704C98.3852 83.6704 99.6741 82.3815 100.104 81.6296L98.6 80.5556C98.063 81.3074 97.4185 81.8445 96.3445 81.8445C95.2704 81.8445 94.6259 81.4148 94.0889 80.4482L100.211 77.8704L99.9963 77.3333ZM93.7667 78.837C93.7667 77.1185 95.163 76.1519 96.1297 76.1519C96.8815 76.1519 97.6334 76.5815 97.8482 77.1185L93.7667 78.837ZM88.7185 83.2407H90.7593V69.8148H88.7185V83.2407ZM85.4963 75.4C84.9593 74.863 84.1 74.3259 83.026 74.3259C80.7704 74.3259 78.6222 76.3667 78.6222 78.9445C78.6222 81.5222 80.663 83.4556 83.026 83.4556C84.1 83.4556 84.9593 82.9185 85.3889 82.3815H85.4963V83.0259C85.4963 84.7445 84.5297 85.7111 83.026 85.7111C81.8445 85.7111 80.9852 84.8519 80.7704 84.1L79.0519 84.8519C79.5889 86.0333 80.8778 87.537 83.1334 87.537C85.4963 87.537 87.4297 86.1407 87.4297 82.8111V74.6482H85.4963V75.4ZM83.1334 81.737C81.7371 81.737 80.5556 80.5556 80.5556 78.9445C80.5556 77.3333 81.7371 76.1519 83.1334 76.1519C84.5297 76.1519 85.6037 77.3333 85.6037 78.9445C85.6037 80.5556 84.5297 81.737 83.1334 81.737ZM109.341 69.8148H104.507V83.2407H106.548V78.1926H109.341C111.596 78.1926 113.744 76.5815 113.744 74.0037C113.744 71.4259 111.596 69.8148 109.341 69.8148ZM109.448 76.2593H106.548V71.6407H109.448C110.952 71.6407 111.811 72.9296 111.811 73.8963C111.704 75.0778 110.844 76.2593 109.448 76.2593ZM121.8 74.3259C120.296 74.3259 118.793 74.9704 118.256 76.3667L120.082 77.1185C120.511 76.3667 121.156 76.1519 121.907 76.1519C122.982 76.1519 123.948 76.7963 124.056 77.8704V77.9778C123.733 77.763 122.874 77.4407 122.015 77.4407C120.082 77.4407 118.148 78.5148 118.148 80.4482C118.148 82.2741 119.759 83.4556 121.478 83.4556C122.874 83.4556 123.519 82.8111 124.056 82.1667H124.163V83.2407H126.096V78.0852C125.882 75.7222 124.056 74.3259 121.8 74.3259ZM121.585 81.737C120.941 81.737 119.974 81.4148 119.974 80.5556C119.974 79.4815 121.156 79.1593 122.122 79.1593C122.981 79.1593 123.411 79.3741 123.948 79.5889C123.733 80.8778 122.659 81.737 121.585 81.737ZM132.863 74.6482L130.607 80.4482H130.5L128.137 74.6482H125.989L129.533 82.8111L127.493 87.3222H129.533L135.011 74.6482H132.863ZM114.819 83.2407H116.859V69.8148H114.819V83.2407Z" fill="white"/>
<g id="Group">
<path id="Vector_5" d="M11.1704 59.0741C10.8481 59.3963 10.7407 59.9334 10.7407 60.5778V84.3148C10.7407 84.9593 10.9555 85.4963 11.2778 85.8185L11.3852 85.926L24.7037 72.6074V72.3926L11.1704 59.0741Z" fill="url(#paint0_linear_161_97)"/>
<path id="Vector_6" d="M29 77.1185L24.5963 72.7148V72.3926L29 67.9889L29.1074 68.0963L34.3703 71.1037C35.874 71.963 35.874 73.3593 34.3703 74.2185L29 77.1185Z" fill="url(#paint1_linear_161_97)"/>
<path id="Vector_7" d="M29.1074 77.0111L24.5963 72.5L11.1703 85.9259C11.7074 86.463 12.4592 86.463 13.4259 86.0333L29.1074 77.0111Z" fill="url(#paint2_linear_161_97)"/>
<path id="Vector_8" d="M29.1074 67.9889L13.4259 59.0741C12.4592 58.537 11.7074 58.6445 11.1703 59.1815L24.5963 72.5L29.1074 67.9889Z" fill="url(#paint3_linear_161_97)"/>
<path id="Vector_9" opacity="0.2" d="M29 76.9037L13.4259 85.7111C12.5666 86.2481 11.8148 86.1407 11.2778 85.7111L11.1703 85.8185L11.2778 85.9259C11.8148 86.3555 12.5666 86.4629 13.4259 85.9259L29 76.9037Z" fill="black"/>
<path id="Vector_10" opacity="0.12" d="M11.1704 85.7111C10.8481 85.3889 10.7407 84.8519 10.7407 84.2074V84.3148C10.7407 84.9593 10.9555 85.4963 11.2778 85.8185V85.7111H11.1704ZM34.3704 73.8963L29 76.9037L29.1074 77.0111L34.3704 74.0037C35.1222 73.5741 35.4444 73.037 35.4444 72.5C35.4444 73.037 35.0148 73.4667 34.3704 73.8963Z" fill="black"/>
<path id="Vector_11" opacity="0.25" d="M13.4259 59.1815L34.3704 71.1037C35.0148 71.5333 35.4444 71.963 35.4444 72.5C35.4444 71.963 35.1222 71.4259 34.3704 70.9963L13.4259 59.0741C11.9222 58.2148 10.7407 58.8593 10.7407 60.5778V60.6852C10.7407 59.0741 11.9222 58.3222 13.4259 59.1815Z" fill="white"/>
</g>
</g>
<defs>
<linearGradient id="paint0_linear_161_97" x1="23.4148" y1="60.3737" x2="5.38861" y2="78.3988" gradientUnits="userSpaceOnUse">
<stop stop-color="#00A0FF"/>
<stop offset="0.007" stop-color="#00A1FF"/>
<stop offset="0.26" stop-color="#00BEFF"/>
<stop offset="0.512" stop-color="#00D2FF"/>
<stop offset="0.76" stop-color="#00DFFF"/>
<stop offset="1" stop-color="#00E3FF"/>
</linearGradient>
<linearGradient id="paint1_linear_161_97" x1="36.3402" y1="72.5011" x2="10.3508" y2="72.5011" gradientUnits="userSpaceOnUse">
<stop stop-color="#FFE000"/>
<stop offset="0.409" stop-color="#FFBD00"/>
<stop offset="0.775" stop-color="#FFA500"/>
<stop offset="1" stop-color="#FF9C00"/>
</linearGradient>
<linearGradient id="paint2_linear_161_97" x1="26.666" y1="74.9661" x2="2.22224" y2="99.4099" gradientUnits="userSpaceOnUse">
<stop stop-color="#FF3A44"/>
<stop offset="1" stop-color="#C31162"/>
</linearGradient>
<linearGradient id="paint3_linear_161_97" x1="7.8375" y1="51.2076" x2="18.7533" y2="62.1234" gradientUnits="userSpaceOnUse">
<stop stop-color="#32A071"/>
<stop offset="0.069" stop-color="#2DA771"/>
<stop offset="0.476" stop-color="#15CF74"/>
<stop offset="0.801" stop-color="#06E775"/>
<stop offset="1" stop-color="#00F076"/>
</linearGradient>
</defs>
</svg>
