<svg width="97" height="97" viewBox="0 0 97 97" fill="none" xmlns="http://www.w3.org/2000/svg">
<g id="qr-code-svgrepo-com 1" clip-path="url(#clip0_161_110)">
<path id="Vector" d="M12.125 36.375H36.375V12.125H12.125V36.375ZM16.1667 16.1667H32.3333V32.3333H16.1667V16.1667ZM20.2083 20.2083H28.2917V28.2917H20.2083V20.2083ZM60.625 36.375H84.875V12.125H60.625V36.375ZM64.6667 16.1667H80.8333V32.3333H64.6667V16.1667ZM68.7083 20.2083H76.7917V28.2917H68.7083V20.2083ZM12.125 84.875H36.375V60.625H12.125V84.875ZM16.1667 64.6667H32.3333V80.8333H16.1667V64.6667ZM20.2083 68.7083H28.2917V76.7917H20.2083V68.7083ZM80.8333 76.7917H84.875V84.875H76.7917V72.75H80.8333V76.7917ZM80.8333 64.6667H84.875V68.7083H80.8333V64.6667ZM80.8333 60.625V64.6667H76.7917V60.625H80.8333ZM40.4167 68.7083H44.4583V84.875H40.4167V68.7083ZM24.25 40.4167V48.5H16.1667V44.4583H12.125V40.4167H24.25ZM40.4167 28.2917H44.4583V32.3333H40.4167V28.2917ZM52.5417 16.1667V24.25H48.5V12.125H56.5833V16.1667H52.5417ZM40.4167 16.1667H44.4583V20.2083H40.4167V16.1667ZM80.8333 48.5H84.875V56.5833H76.7917V52.5417H80.8333V48.5ZM76.7917 40.4167V44.4583H68.7083V52.5417H60.625V48.5H64.6667V40.4167H76.7917ZM48.5 56.5833H44.4583V52.5417H40.4167V48.5H48.5V56.5833ZM72.75 64.6667H76.7917V68.7083H72.75V64.6667ZM80.8333 44.4583V48.5H76.7917V44.4583H80.8333ZM44.4583 56.5833V60.625H40.4167V56.5833H44.4583ZM68.7083 76.7917H72.75V84.875H64.6667V76.7917H68.7083ZM56.5833 76.7917H60.625V80.8333H56.5833V84.875H48.5V80.8333H52.5417V76.7917H56.5833ZM56.5833 72.75V68.7083H64.6667V72.75H56.5833ZM56.5833 52.5417H60.625V64.6667H56.5833V68.7083H52.5417V72.75H48.5V64.6667H44.4583V60.625H56.5833V56.5833H52.5417V52.5417H56.5833ZM20.2083 52.5417V56.5833H16.1667V52.5417H20.2083ZM68.7083 68.7083H64.6667V64.6667H68.7083V68.7083ZM72.75 60.625H64.6667V56.5833H72.75V60.625ZM32.3333 40.4167H36.375V44.4583H32.3333V48.5H36.375V56.5833H32.3333V52.5417H28.2917V56.5833H24.25V48.5H28.2917V40.4167H32.3333ZM44.4583 40.4167V32.3333H56.5833V44.4583H48.5V40.4167H52.5417V36.375H48.5V40.4167H44.4583ZM44.4583 24.25H48.5V28.2917H44.4583V24.25ZM40.4167 40.4167H44.4583V44.4583H40.4167V40.4167ZM52.5417 28.2917V24.25H56.5833V28.2917H52.5417Z" fill="black"/>
</g>
<defs>
<clipPath id="clip0_161_110">
<rect width="97" height="97" fill="white"/>
</clipPath>
</defs>
</svg>
